<?xml version="1.0" encoding="UTF-8" standalone="no"?>
<svg
   viewBox="0 0 320 59.999999"
   version="1.1"
   id="svg22"
   sodipodi:docname="logo-full-dark.svg"
   xml:space="preserve"
   width="800"
   height="150"
   inkscape:version="1.4.3 (0d15f75, 2025-12-25)"
   xmlns:inkscape="http://www.inkscape.org/namespaces/inkscape"
   xmlns:sodipodi="http://sodipodi.sourceforge.net/DTD/sodipodi-0.dtd"
   xmlns="http://www.w3.org/2000/svg"
   xmlns:svg="http://www.w3.org/2000/svg"><defs
     id="defs26" /><sodipodi:namedview
     id="namedview24"
     pagecolor="#ffffff"
     bordercolor="#000000"
     borderopacity="0.25"
     inkscape:showpageshadow="2"
     inkscape:pageopacity="0.0"
     inkscape:pagecheckerboard="0"
     inkscape:deskcolor="#d1d1d1"
     showgrid="true"
     inkscape:zoom="1.8101934"
     inkscape:cx="151.08883"
     inkscape:cy="58.833493"
     inkscape:window-width="1920"
     inkscape:window-height="1009"
     inkscape:window-x="1912"
     inkscape:window-y="-8"
     inkscape:window-maximized="1"
     inkscape:current-layer="svg22"><inkscape:grid
       type="xygrid"
       id="grid8158"
       dotted="false"
       originx="0"
       originy="0"
       visible="true"
       empspacing="5"
       spacingy="1"
       spacingx="1"
       units="px" /></sodipodi:namedview><circle
     style="fill:#ff3034;fill-opacity:1;stroke:none;stroke-width:4.07192;stroke-linecap:round;stroke-dasharray:none;stroke-opacity:1"
     id="path21897"
     cx="42"
     cy="28"
     r="22" /><path
     style="baseline-shift:baseline;display:inline;overflow:visible;fill:#162537;stroke-linecap:round;stroke-linejoin:round;enable-background:accumulate;stop-color:#000000;stop-opacity:1;opacity:1;stroke:#f9f9f9;stroke-width:0.4;stroke-dasharray:none"
     d="M 42,4.5 C 29.166667,4.5 18.5,15.166667 18.5,28 c 0,11.818182 9.653846,23.5 23.5,23.5 h 8 A 1.5,1.5 0 0 0 51.5,50 1.5,1.5 0 0 0 50,48.5 H 42 C 29.846154,48.5 21.5,38.181818 21.5,28 21.5,16.833333 30.833333,7.5 42,7.5 53.166667,7.5 62.5,16.833333 62.5,28 A 1.5,1.5 0 0 0 64,29.5 1.5,1.5 0 0 0 65.5,28 C 65.5,15.166667 54.833333,4.5 42,4.5 Z"
     id="path33833" /><path
     fill="#ffffff"
     d="m 33.7033,38.67726 c -0.027,-1.37571 -1.1594,-2.47331 -2.5382,-2.46 -1.3787,0.0133 -2.4881,1.13248 -2.4881,2.50824 0,1.37576 1.1094,2.49494 2.4881,2.50825 1.3788,0.0133 2.5117,-1.0843 2.5382,-2.46001 M 56,36.09648 C 54.3359,24.51818 45.2153,15.42151 33.6066,13.7618 c -1.3743,0.68232 -2.6313,1.57784 -3.7242,2.65315 v 2.50843 c 11.5772,-0.0535 20.9909,9.29227 20.9908,20.83926 h 2.515 C 54.5205,38.71077 55.4114,37.42725 56,36 M 39.6523,11.88048 39.2654,13.03822 c 8.1524,2.87639 14.5794,9.25113 17.5085,17.36605 l 1.064,-0.38591 C 58.864,19.60658 50.0915,10.8571 39.6523,11.88048 Z m 0.4837,32.9955 c 3.6637,-7.19338 -1.1303,-15.80003 -9.1895,-16.49775 -0.549,-0.0924 -0.9239,-0.60446 -0.8452,-1.15411 0.079,-0.54965 0.5824,-0.9365 1.1353,-0.87193 8.3335,0.88389 13.8697,9.02837 11.6079,17.07662 l 2.9987,0.8683 2.5634,-0.96478 c 2.0445,-10.52654 -5.1319,-20.6261 -15.7673,-22.18995 -3.681,-0.82253 -7.2797,1.67109 -7.7913,5.3986 -0.5116,3.72751 2.2829,7.09395 6.0501,7.28826 4.2403,0.77369 6.3569,5.5737 4.0627,9.21366 l 2.0314,1.35069 z"
     id="path20"
     style="stroke-width:0.0966048"
     sodipodi:nodetypes="cssscccccccccccccccscccccscccc" /><g
     id="g66457"
     transform="matrix(0.1,0,0,0.1,2.9999995,-2.0000004)"
     style="stroke:#f9f9f9;stroke-width:3.99999997;stroke-dasharray:none"><g
       id="g445"
       transform="translate(100,5)"
       style="stroke:#f9f9f9;stroke-width:3.99999997;stroke-dasharray:none"><path
         style="fill:#162537;fill-opacity:1;stroke:#f9f9f9;stroke-width:3.99999997;stroke-dasharray:none;stroke-opacity:1"
         d="m 547.58929,470 h -45.17858 v 35 h 45.17858 c 16.42857,0 16.42857,-35 0,-35 z"
         id="path6971-3-5-3-9"
         sodipodi:nodetypes="ccccc" /><path
         style="fill:#162537;fill-opacity:1;stroke:#f9f9f9;stroke-width:3.99999997;stroke-dasharray:none;stroke-opacity:1"
         d="m 547.58929,530 h -45.17858 v 35 h 45.17858 c 16.42857,0 16.42857,-35 0,-35 z"
         id="path6971-3-5-3-9-32"
         sodipodi:nodetypes="ccccc" /><g
         id="path6971-2"
         style="opacity:1;stroke:#f9f9f9;stroke-width:3.99999997;stroke-dasharray:none"><path
           style="baseline-shift:baseline;display:inline;overflow:visible;fill:#ffffff;stroke-linejoin:round;enable-background:accumulate;stop-color:#000000;stop-opacity:1;stroke:#f9f9f9;stroke-width:3.99999997;stroke-dasharray:none"
           d="m 415,455 h 70 c 10,0 10,0 10,10 v 100 c 0,10.00104 0,10 -10,10 h -70 c 0,0 -40,0 -40,-30 v -50 c 0,-35 40,-40 40,-40 z"
           id="path7" /><path
           style="baseline-shift:baseline;display:inline;overflow:visible;fill:#162537;stroke-linejoin:round;enable-background:accumulate;stop-color:#000000;stop-opacity:1;stroke:#f9f9f9;stroke-width:3.99999997;stroke-dasharray:none"
           d="m 415,447.5 a 7.50075,7.50075 0 0 0 -0.92969,0.0586 c 0,0 -11.29973,1.33962 -22.74804,7.7793 C 379.87395,461.77757 367.5,474.64286 367.5,495 v 50 c 0,9.16667 3.29489,16.87033 8.14453,22.32617 4.84964,5.45584 10.95307,8.78367 16.72266,10.94727 C 403.90636,582.60063 415,582.5 415,582.5 h 70 c 2.49987,0 4.47603,0.0357 6.60937,-0.20117 2.13335,-0.23692 5.05032,-0.85135 7.44336,-3.24414 2.39305,-2.3928 3.00905,-5.31178 3.2461,-7.44532 C 502.53588,569.47584 502.5,567.50026 502.5,565 V 465 c 0,-2.5 0.0359,-4.47589 -0.20117,-6.60938 -0.23706,-2.13348 -0.85333,-5.05059 -3.2461,-7.44335 -2.39276,-2.39277 -5.30987,-3.00904 -7.44336,-3.2461 C 489.47589,447.46412 487.5,447.5 485,447.5 Z m 0.66016,15 H 485 c 1.23422,0 1.60938,0.037 2.44531,0.0547 0.0177,0.83593 0.0547,1.21109 0.0547,2.44531 v 100 c 0,1.23435 -0.037,1.60931 -0.0547,2.44531 -0.836,0.0177 -1.21101,0.0547 -2.44531,0.0547 h -70 c 0,0 -8.90636,-0.10063 -17.36719,-3.27344 -4.23041,-1.5864 -8.12698,-3.88357 -10.77734,-6.86523 C 384.20511,554.37967 382.5,550.83333 382.5,545 v -50 c 0,-14.64286 7.62605,-21.77757 16.17773,-26.58789 8.33908,-4.69073 16.56585,-5.85439 16.98243,-5.91211 z"
           id="path8" /></g><path
         style="baseline-shift:baseline;display:inline;overflow:visible;fill:#162537;stroke-linecap:round;stroke-linejoin:round;enable-background:accumulate;stop-color:#000000;stop-opacity:1;opacity:1;stroke:#f9f9f9;stroke-width:3.99999997;stroke-dasharray:none"
         d="m 442.21484,473.03711 a 7.5,7.5 0 0 0 -4.10937,4.00781 l -15,35 A 7.50075,7.50075 0 0 0 430,522.5 h 18.625 l -10.51953,24.54492 a 7.5,7.5 0 0 0 3.93945,9.84961 7.5,7.5 0 0 0 9.84961,-3.93945 l 15,-35 A 7.50075,7.50075 0 0 0 460,507.5 h -18.625 l 10.51953,-24.54492 a 7.5,7.5 0 0 0 -3.93945,-9.84961 7.5,7.5 0 0 0 -5.74024,-0.0684 z"
         id="path53923" /></g></g><g
     id="g439"
     transform="translate(0.99362,0.119991)"
     style="fill:#ffffff"><path
       d="M 82.259997,43.640012 V 14.753326 h 17.500011 v 4.760003 H 88 V 26 h 10.220007 v 4.760004 H 88 v 8.120005 h 12.78668 v 4.760003 z"
       id="path304"
       style="font-weight:bold;font-size:46.6667px;font-family:'Ubuntu Mono';-inkscape-font-specification:'Ubuntu Mono, Bold';fill:#ffffff;stroke-width:3;stroke-linecap:round;stroke-linejoin:round" /><path
       d="m 113.47993,39.44001 q 1.44667,0 2.38,-0.280001 0.98,-0.326667 1.54,-0.84 0.56,-0.560001 0.74667,-1.213334 0.23333,-0.700001 0.23333,-1.400001 0,-0.886668 -0.51333,-1.586668 -0.51333,-0.700001 -1.30667,-1.213334 -0.79333,-0.560001 -1.77333,-0.980001 -0.98,-0.466667 -1.96,-0.84 -1.30667,-0.466667 -2.70667,-1.073335 -1.4,-0.606667 -2.56667,-1.540001 -1.12,-0.933334 -1.86667,-2.286668 -0.74666,-1.400001 -0.74666,-3.453335 0,-4.060003 2.61333,-6.346671 2.66,-2.286669 7.28001,-2.286669 2.66,0 4.62,0.606667 2.00667,0.606667 3.36,1.353335 l -1.68,4.433336 q -1.16667,-0.653334 -2.61334,-1.120001 -1.4,-0.466667 -3.26666,-0.466667 -4.57334,0 -4.57334,3.313336 0,0.84 0.46667,1.493334 0.46666,0.606667 1.16666,1.120001 0.74667,0.466667 1.63334,0.840001 0.93333,0.373333 1.82,0.7 1.35333,0.513334 2.8,1.166667 1.49334,0.606668 2.70667,1.680002 1.26,1.026667 2.05333,2.613335 0.79334,1.540001 0.79334,3.920002 0,4.060003 -2.66,6.300005 -2.61334,2.193335 -7.98001,2.193335 -3.59333,0 -5.74,-0.746668 -2.14667,-0.793334 -3.22,-1.446667 l 1.68,-4.66667 q 1.26,0.746667 2.98666,1.400001 1.77334,0.653334 4.29334,0.653334 z"
       id="path306"
       style="font-weight:bold;font-size:46.6667px;font-family:'Ubuntu Mono';-inkscape-font-specification:'Ubuntu Mono, Bold';fill:#ffffff;stroke-width:3;stroke-linecap:round;stroke-linejoin:round" /><path
       d="m 136.43986,14.426659 q 5.50667,0 8.54,2.286668 3.03334,2.240002 3.03334,7.373339 0,5.180003 -3.08,7.513338 -3.03334,2.286668 -8.63334,2.286668 h -2.05334 v 9.75334 h -5.74 V 15.12666 q 0.84,-0.186667 1.86667,-0.326667 1.07333,-0.14 2.14666,-0.186667 1.07334,-0.09333 2.10001,-0.14 1.02666,-0.04667 1.82,-0.04667 z m 0.65333,4.993337 q -0.51333,0 -1.44667,0.04667 -0.88666,0 -1.4,0.09333 v 9.33334 h 2.33334 q 2.75333,0 4.15333,-1.073334 1.4,-1.120001 1.4,-3.780003 0,-2.520002 -1.4,-3.546669 -1.35333,-1.073334 -3.64,-1.073334 z"
       id="path308"
       style="font-weight:bold;font-size:46.6667px;font-family:'Ubuntu Mono';-inkscape-font-specification:'Ubuntu Mono, Bold';fill:#ffffff;stroke-width:3;stroke-linecap:round;stroke-linejoin:round" /><path
       d="m 159.25978,44.24668 q -1.07333,0 -2.28667,-0.186667 -1.16666,-0.14 -2.28666,-0.373334 -1.07334,-0.233333 -2.00667,-0.513334 -0.93334,-0.28 -1.44667,-0.513333 l 1.12,-4.80667 q 1.07334,0.466667 2.75334,0.98 1.72666,0.513334 4.10667,0.513334 2.94,0 4.10667,-1.260001 1.21333,-1.260001 1.21333,-3.126668 0,-2.286669 -1.82,-3.173336 -1.82,-0.933334 -4.62,-0.933334 h -1.77334 v -4.760003 h 2.14667 q 0.88667,0 1.77333,-0.186667 Q 161.12645,25.72 161.82645,25.3 q 0.7,-0.42 1.12,-1.120001 0.46667,-0.7 0.46667,-1.773334 0,-1.586668 -0.98,-2.473335 -0.93334,-0.933334 -2.61334,-0.933334 -1.63333,0 -3.26667,0.56 -1.58666,0.513334 -2.75333,1.306668 l -2.05334,-4.200003 q 1.26001,-0.840001 3.31334,-1.680001 2.1,-0.886668 4.71334,-0.886668 2.42667,0 4.2,0.606667 1.82,0.606667 2.98667,1.726668 1.16667,1.073334 1.72667,2.566669 0.56,1.493334 0.56,3.220002 0,1.726668 -0.98,3.313335 -0.98,1.586668 -2.61334,2.426669 2.24,0.933334 3.45334,2.753335 1.26,1.820001 1.26,4.340003 0,2.006668 -0.65334,3.686669 -0.65333,1.680001 -2.00666,2.940002 -1.35334,1.213334 -3.45334,1.913335 -2.1,0.653334 -4.99334,0.653334 z"
       id="path310"
       style="font-weight:bold;font-size:46.6667px;font-family:'Ubuntu Mono';-inkscape-font-specification:'Ubuntu Mono, Bold';fill:#ffffff;stroke-width:3;stroke-linecap:round;stroke-linejoin:round" /><path
       d="m 192.90638,22.359998 q 0,1.493334 -0.56,2.893335 -0.56,1.353334 -1.49333,2.660002 -0.93334,1.306668 -2.1,2.520002 -1.16667,1.213334 -2.38,2.333335 -0.60667,0.56 -1.40001,1.353334 -0.79333,0.746667 -1.49333,1.586668 -0.7,0.793334 -1.21333,1.633334 -0.46667,0.840001 -0.46667,1.540001 h 12.41334 v 4.760003 H 175.3597 q -0.14,-0.466667 -0.14,-1.166667 0.0467,-0.700001 0.0467,-0.980001 0,-2.333335 0.84,-4.293336 0.88667,-1.960001 2.19334,-3.593336 1.35333,-1.680001 2.84667,-3.080002 1.54,-1.446667 2.84666,-2.753335 1.35334,-1.306668 2.19334,-2.520002 0.88667,-1.213334 0.88667,-2.473335 0,-1.773334 -1.07334,-2.706668 -1.07333,-0.980001 -2.70667,-0.980001 -1.35333,0 -2.84667,0.653334 -1.49333,0.653334 -2.94,2.193335 l -2.84667,-4.013336 q 1.86667,-1.960002 4.29334,-2.893336 2.47334,-0.933334 4.9,-0.933334 1.77334,0 3.40667,0.513334 1.63334,0.513334 2.89334,1.540001 1.26,1.026667 2.00667,2.613335 0.74666,1.540001 0.74666,3.593336 z"
       id="path312"
       style="font-weight:bold;font-size:46.6667px;font-family:'Ubuntu Mono';-inkscape-font-specification:'Ubuntu Mono, Bold';fill:#ffffff;stroke-width:3;stroke-linecap:round;stroke-linejoin:round" /></g><g
     id="g432"
     transform="translate(-7.9993324)"
     style="fill:#ffffff"><path
       d="M 222.25956,43.640012 V 14.753326 h 17.50001 v 4.760003 H 227.99956 V 26 h 10.22001 v 4.760004 h -10.22001 v 8.120005 h 12.78668 v 4.760003 z"
       id="path314"
       style="font-weight:bold;font-size:46.6667px;font-family:'Ubuntu Mono';-inkscape-font-specification:'Ubuntu Mono, Bold';fill:#ffffff;stroke-width:3;stroke-linecap:round;stroke-linejoin:round" /><path
       d="m 251.33283,43.640012 q -1.12,-3.220002 -2.38,-7.280005 -1.26,-4.060002 -2.38001,-8.073338 -1.12,-4.060003 -2.00666,-7.653339 -0.88667,-3.593336 -1.30667,-5.880004 h 6.06667 q 0.28,2.240002 0.84,5.22667 0.56,2.940002 1.21333,6.113338 0.70001,3.126669 1.44667,6.206671 0.79334,3.033335 1.54,5.460003 0.74667,-2.380001 1.49334,-5.413337 0.74667,-3.080002 1.4,-6.20667 0.65333,-3.173336 1.21333,-6.160005 0.56,-2.986668 0.93334,-5.22667 h 6.02 q -0.56,2.800002 -1.4,6.253338 -0.79333,3.453335 -1.86667,7.280005 -1.02667,3.780002 -2.28667,7.746672 -1.26,3.920002 -2.61333,7.606671 z"
       id="path316"
       style="font-weight:bold;font-size:46.6667px;font-family:'Ubuntu Mono';-inkscape-font-specification:'Ubuntu Mono, Bold';fill:#ffffff;stroke-width:3;stroke-linecap:round;stroke-linejoin:round" /><path
       d="m 276.81275,39.44001 q 1.44667,0 2.38,-0.280001 0.98,-0.326667 1.54,-0.84 0.56,-0.560001 0.74667,-1.213334 0.23333,-0.700001 0.23333,-1.400001 0,-0.886668 -0.51333,-1.586668 -0.51334,-0.700001 -1.30667,-1.213334 -0.79333,-0.560001 -1.77333,-0.980001 -0.98,-0.466667 -1.96001,-0.84 -1.30666,-0.466667 -2.70666,-1.073335 -1.4,-0.606667 -2.56667,-1.540001 -1.12,-0.933334 -1.86667,-2.286668 -0.74667,-1.400001 -0.74667,-3.453335 0,-4.060003 2.61334,-6.346671 2.66,-2.286669 7.28,-2.286669 2.66,0 4.62001,0.606667 2.00666,0.606667 3.36,1.353335 l -1.68,4.433336 q -1.16667,-0.653334 -2.61334,-1.120001 -1.4,-0.466667 -3.26667,-0.466667 -4.57333,0 -4.57333,3.313336 0,0.84 0.46666,1.493334 0.46667,0.606667 1.16667,1.120001 0.74667,0.466667 1.63334,0.840001 0.93333,0.373333 1.82,0.7 1.35333,0.513334 2.8,1.166667 1.49333,0.606668 2.70667,1.680002 1.26,1.026667 2.05333,2.613335 0.79334,1.540001 0.79334,3.920002 0,4.060003 -2.66001,6.300005 -2.61333,2.193335 -7.98,2.193335 -3.59334,0 -5.74001,-0.746668 -2.14666,-0.793334 -3.22,-1.446667 l 1.68,-4.66667 q 1.26,0.746667 2.98667,1.400001 1.77334,0.653334 4.29334,0.653334 z"
       id="path318"
       style="font-weight:bold;font-size:46.6667px;font-family:'Ubuntu Mono';-inkscape-font-specification:'Ubuntu Mono, Bold';fill:#ffffff;stroke-width:3;stroke-linecap:round;stroke-linejoin:round" /><path
       d="M 292.25933,43.640012 V 14.753326 h 17.50001 v 4.760003 H 297.99933 V 26 h 10.22001 v 4.760004 h -10.22001 v 8.120005 h 12.78668 v 4.760003 z"
       id="path320"
       style="font-weight:bold;font-size:46.6667px;font-family:'Ubuntu Mono';-inkscape-font-specification:'Ubuntu Mono, Bold';fill:#ffffff;stroke-width:3;stroke-linecap:round;stroke-linejoin:round" /></g></svg>
